<?xml version="1.0" encoding="UTF-8"?>
<svg id="Layer_1" data-name="Layer 1" xmlns="http://www.w3.org/2000/svg" viewBox="0 0 353.06 488.45">
  <defs>
    <style>
      .cls-1 {
        stroke-width: 2px;
      }

      .cls-1, .cls-2 {
        fill: none;
        stroke: #000;
        stroke-miterlimit: 10;
      }

      .cls-3 {
        stroke-width: 0px;
      }
    </style>
  </defs>
  <path class="cls-1" d="M151.66,7.14l-3.12,194.38s-5.2,6.17,1.04,14l-.35,23.38-14.21,17.71-49.89,18.71h-16.08l-.56,6.24s-38.46,23.91-40.54,50.93c0,0-21.83-3.12-13.51,17.67,0,0-14.55,47.81-6.24,74.84,0,0-10.39,4.16-6.24,16.63,4.16,12.47,87.31,47.81,172.55,45.74s160.08-12.47,176.71-45.74c0,0,4.16-12.47-6.24-12.47,0,0,6.24-56.13-2.08-74.84,0,0,12.47-8.32-8.32-16.63,0,0-2.08-16.63-37.42-35.34l41.58-2.08v-37.42h-64.45l.74-255.7s-13.13-6.24-20.45,0l-5.24,255.7h-14.55l-22.87-29.1-1.04-19.75s8.32-2.08,2.08-10.39l1.04-198.53s-41.58-10.39-62.37,2.08Z"/>
  <path class="cls-2" d="M148.54,202.56c10.65-1.45,18.79-2.4,32.74-2.08,11.5.27,24.93,3.09,32.74,4.16"/>
  <path class="cls-2" d="M147.5,212.95c10.39,2.08,19.97,1.75,33.26,2.08,9.1.22,22.87,0,31.18-2.08"/>
  <path class="cls-3" d="M29.06,333.21c76.11,10.73,153.06,19.15,230.02,16.86,19.18-.83,38.45-2.39,57.16-6.85,6.21-1.52,12.34-3.42,18.17-6l.41.91c-5.92,2.61-12.1,4.51-18.35,6.03-44.02,9.66-89.64,7.67-134.36,5.7-51.27-2.94-102.36-8.51-153.15-16.03,0,0,.1-.64.1-.64h0Z"/>
  <path class="cls-3" d="M14.53,349.66c81.88,10.55,164.49,18.96,247.14,16.99,20.6-.79,41.3-2.17,61.45-6.67,6.68-1.54,13.29-3.49,19.55-6.24l.51,1.14c-6.37,2.79-13.05,4.75-19.78,6.3-47.42,9.63-96.34,7.33-144.39,5.36-55.07-2.99-109.97-8.52-164.62-15.89,0,0,.14-.99.14-.99h0Z"/>
</svg>