<?xml version="1.0" encoding="UTF-8"?>
<svg id="Layer_1" data-name="Layer 1" xmlns="http://www.w3.org/2000/svg" viewBox="0 0 351.44 467.25">
  <defs>
    <style>
      .cls-1 {
        stroke-width: 1.5px;
      }

      .cls-1, .cls-2 {
        fill: none;
        stroke: #000;
        stroke-miterlimit: 10;
      }

      .cls-3 {
        stroke-width: 0px;
      }
    </style>
  </defs>
  <path class="cls-1" d="M1.17,89.82C7.96,33.68,106.58-2.12,183.46.93c68.45,2.72,125.5,25.91,135.59,33.14,18.88,13.53,31.64,31.64,31.64,61.77,0,49.62-91.1,84.49-102.44,87.38-25.11,6.4-161.35,32.67-219.95-27.12-7.76-7.92-30.94-34.64-27.12-66.29Z"/>
  <path class="cls-1" d="M252.76,428.79c36.38-12.51,65.71-42.78,88.89-106.96l9.04-225.98"/>
  <path class="cls-1" d="M.75,101.37l60.68,280.72s80.42,64.95,161.2,52.73"/>
  <path class="cls-2" d="M90.42,401.02v58.95s5.66,10.99,17.72,4.97l21.4-44.69"/>
  <path class="cls-2" d="M270.44,419.59l26.01,31.8s9.04,3.01,15.07-6.03l-4.22-58.89"/>
  <path class="cls-3" d="M77.87,185.21c-12.05-3.72-12.74-30.89-15.02-41.65-.43-2.48-.9-4.96-1.58-7.36-1.06-3.78-3.27-9.81-.5-13.27,3.01-3.47,10.2,3.74,10.49-3.07.54-4.56-5.11-16.07-.64-18.67,2.66-1.07,5.25,1.02,7.49,2.16,2.19,1.27,4.34,2.59,6.63,3.51,5.2,2.27,9.74.54,10.88-5.21,1.61-7.33,1.01-15.62,5.7-21.98,6.48-8.59,18.53-9.02,28.35-8.31,15.21,1.36,29.9,5.93,44.03,11.49,9.31,3.97,19.72,4.58,29.34,1.44,3.54-.95,7.72-3.01,11.38-1.4,6.56,3.1,4.75,11.68,5.72,17.56.5,4.94,2.78,9.67,7.07,12.36,6.15,3.93,14.51,5.13,21.29,2.17,7.35-3.15,8.5-11.97,8.28-19.09-.07-5.03-.68-10.06-.76-15.15-.22-7.23,1.33-13.75,9.82-14.19,9.06-.26,17.5,4.38,24.65,9.51,4.09,3.04,7.83,6.56,11.08,10.49,3.28,3.9,5.73,8.37,8.53,12.61,3.63,6.04,24.13,35.94,18.07,40.5,0,0-.12-.2-.12-.2,5.61-4.18-15.48-34.28-18.74-39.79-2.8-4.17-5.26-8.62-8.5-12.49-3.19-3.86-6.88-7.33-10.9-10.33-6.01-4.4-12.86-8.11-20.3-9.18-4.62-.71-10.6.44-11.83,5.67-3.34,12.91,6.4,35.04-8.84,42.54-9.03,3.96-22.51,1.03-27.56-7.9-2.53-4.59-2.41-9.97-2.76-14.99-.15-4.95-2.25-10.29-8.04-9.64-2.05.16-5.2,1.34-7.23,1.91-9.77,3.21-20.58,2.57-29.98-1.46-14.04-5.53-28.68-10.08-43.75-11.43-9.54-.67-21.17-.36-27.46,7.9-4.57,6.27-3.91,14.36-5.54,21.64-.79,4.17-3.94,7.48-8.43,6.89-5.2-.6-9.27-4.25-13.86-6.31-9.09-3.99-1.19,13.52-2.05,17.43.08,2.29-1.49,4.38-3.96,4.03-2.68-.28-6.56-2.66-7.59,1.13-.77,3.63.47,7.34,1.52,10.87.7,2.46,1.17,4.97,1.61,7.47,2.19,10.37,3.01,37.31,14.31,40.86,0,0-.28.96-.28.96h0Z"/>
  <path class="cls-2" d="M218.11,405.58s12.05-23.5,30.13-8.43v14.86s13.56,7.74-3.01,30.34l-16.57,1.51s-12.05-12.05-7.03-24.69l-3.51-13.59Z"/>
</svg>