<?xml version="1.0" encoding="UTF-8"?>
<svg id="Layer_1" data-name="Layer 1" xmlns="http://www.w3.org/2000/svg" viewBox="0 0 818.74 404.8">
  <defs>
    <style>
      .cls-1, .cls-2 {
        fill: none;
        stroke: #000;
        stroke-miterlimit: 10;
      }

      .cls-3 {
        stroke-width: 0px;
      }

      .cls-2 {
        stroke-width: .5px;
      }
    </style>
  </defs>
  <g>
    <path class="cls-3" d="M0,392.93c70.82-31.17,142.21-62.49,208.62-102.41,10.82-6.81,21.31-13.76,30.4-22.84,0,0,3.47-3.3,3.47-3.3,7.88-7.73,15.99-16.3,23.51-24.37C336.29,163.84,403.41,84.73,470.66,5.85c0,0,.73.6.73.6-49.19,60.27-98.69,120.29-149.14,179.53-23.7,27.73-47.53,55.53-72.65,82.05-1.11,1.1-4.11,4.07-5.26,5.21-9.14,9.51-20.19,17.21-31.17,24.4-43.92,28.06-90.7,51.13-137.4,74.05-23.39,11.32-46.86,22.37-70.58,33.11l-5.19-11.86h0Z"/>
    <path class="cls-1" d="M443.78,40.46s23.66-4.22,27.24-2.62c0,0-13.99,14.27-35.42,13.06l8.18-10.44Z"/>
    <path class="cls-1" d="M435.16,50.21s-9.73-22.09-6.15-20.49c-4.72-1.16-3.29,20.55-.59,25.28l6.74-4.8Z"/>
    <path class="cls-1" d="M409.55,77.87c-.37-.92-7.46-17.11-7.17-18.44-.75,2.99-1.45,20.78,2.05,25.61l5.12-7.17Z"/>
    <path class="cls-1" d="M352.18,144.46c-.37-.92-4.39-19.16-4.1-20.49-.75,2.99-4.53,22.83-1.02,27.66l5.12-7.17Z"/>
    <path class="cls-1" d="M331.69,166.99c-.37-.92-2.34-23.26-2.05-24.59-.75,2.99-6.58,26.93-3.07,31.76l5.12-7.17Z"/>
    <path class="cls-1" d="M422.87,61.47c-.37-.92-6.44-21.21-6.15-22.54-.75,2.99-2.48,24.88,1.02,29.71l5.12-7.17Z"/>
    <path class="cls-1" d="M394.19,95.28c3.14-5.26-4.47-23.64-6.15-22.54,2.14,2.99,1.81,24.88,1.02,29.71l5.12-7.17Z"/>
    <path class="cls-1" d="M374.72,117.82c-3.07-4.1-2.8-28.76-2.05-27.66-11.66,2.05-17.91,30.03-4.1,35.86l6.15-8.2Z"/>
    <path class="cls-1" d="M308.13,193.63c-9.22-2.05-4.98-30.82-2.05-29.71-13.32,4.1-21.44,35.5-8.2,42l10.24-12.29Z"/>
    <path class="cls-1" d="M366.94,130.61s44.15-9.27,47.73-7.67c0,0-34.48,19.32-55.91,18.11l8.18-10.44Z"/>
    <path class="cls-1" d="M272.69,239.21s44.15-9.27,47.73-7.67c0,0-34.48,19.32-55.91,18.11l8.18-10.44Z"/>
    <path class="cls-1" d="M428.96,58.07s21.58-2.47,24.67-.61c0,0-13.72,13.2-32.86,10.42l8.19-9.81Z"/>
    <path class="cls-1" d="M342.91,159.49c-.22,2.43,21.31.52,24.67-.61,0,0-13.72,13.2-32.86,10.42l8.19-9.81Z"/>
    <path class="cls-1" d="M313.2,194.32c4.57-3.85,26.01-5.65,24.67-.61-8.39-3.83-27.41,6.94-32.86,10.42l8.19-9.81Z"/>
    <path class="cls-1" d="M412.57,77.54c-.28,1.6,23.26-1.62,26.69-1.72,0,0-15.74,14.3-34.88,11.53l8.19-9.81Z"/>
    <path class="cls-1" d="M393.67,100.92s23.56-6.15,29.71-4.1c0,0,15.37-2.05,16.39-6.15,0,0-10.24,13.32-21.51,19.46,0,0-23.56,1.67-24.59,5.96,0,0-10.24,4.29-13.32,1.21l13.32-16.39Z"/>
    <path class="cls-3" d="M355.2,146.26l58.43-14.21c.59.47-58.37,14.51-58.31,14.69,0,0-.12-.49-.12-.49h0Z"/>
    <path class="cls-3" d="M300.83,207.43c.09.18,58.8-14.38,58.55-13.69,0,0-58.29,14.78-58.29,14.78l-.27-1.09h0Z"/>
    <path class="cls-3" d="M313.72,189.56c.2-.06-3.03-60.85-2.4-60.48,0,0,3.53,60.42,3.53,60.42l-1.12.06h0Z"/>
    <polygon class="cls-3" points="333.24 168.8 352.08 131.09 352.28 131.19 334.25 169.29 333.24 168.8 333.24 168.8"/>
    <path class="cls-3" d="M372.12,108.5c.19-.02,7.33-40.33,7.83-39.84,0,0-6.73,40.03-6.73,40.03l-1.11-.2h0Z"/>
    <polygon class="cls-3" points="433.58 48.12 437.1 0 437.32 .01 434.7 48.19 433.58 48.12 433.58 48.12"/>
    <polygon class="cls-3" points="289.56 235.09 332.69 225.28 332.74 225.5 289.82 236.18 289.56 235.09 289.56 235.09"/>
    <polygon class="cls-3" points="434.08 57.14 478.67 45.45 478.74 45.74 434.2 57.62 434.08 57.14 434.08 57.14"/>
    <polygon class="cls-3" points="419.73 85.82 464.32 74.13 464.4 74.43 419.86 86.3 419.73 85.82 419.73 85.82"/>
    <path class="cls-1" d="M471.02,6.15s-15.37,7.17-18.44,7.17c-2.29,0-22,21.85-14.59,30.9,0,0,27.9-15.54,29.95-21.68,2.05-6.16,1.02-5.12,3.07-16.39Z"/>
    <path class="cls-1" d="M259.98,246.1s8.66-19.69-1.81-38.13c0,0-3.31-6.15,3.86-16.39,0,0,56.26-79.29,66.55-109.82l15.41-32.58s-47.13,88.1-56.35,95.28c0,0-42,58.39-40.98,67.61,0,0-25.61,45.08-6.15,54.3l19.46-20.27Z"/>
    <path class="cls-1" d="M261.4,215.38s8.42-20.08,15.54-24.76c0,0,28.67-52.83,44.53-64.61,0,0,55.82-78.37,66.57-87.08l-60.77,87.08s-48.66,53.78-43.89,67.61c0,0-9.17,25.1-20.13,31.76,0,0-1.97-10.29-1.86-10.01Z"/>
    <path class="cls-1" d="M257.93,258.17s32.27-4.85,54.81-5.24l82.2-50.42s-74.1,62.57-89.93,61.93c0,0-48.03,5.51-53.22.9l6.15-7.17Z"/>
    <path class="cls-1" d="M298.91,241.78l17.66,2.39c.82.11,1.66-.12,2.3-.65l15.27-12.51,193.19-158.3-199.94,158.65-6.97.19"/>
    <path class="cls-1" d="M330.67,190.56s29.2-11.78,38.42-9.73l109.62-112.18-107.65,116.26s-39.37,16.92-43.46,8.72"/>
  </g>
  <g>
    <g>
      <path class="cls-1" d="M624.03,225.48s58.28-36.37,92.87,19.9c0,0-43.13,45.38-92.87-19.9Z"/>
      <path class="cls-2" d="M641.13,224.47s38.08-1.32,61.4,15.77"/>
      <path class="cls-3" d="M636.9,240.45c-16.97-.6-25.15-15.01-25.65-30.6,3.81-19.65,3.41-40.07-.15-59.72-.01-.02.82.29.82.28-1.79,1.71-3.14,4.19-4.24,6.43-2.73,5.94-3.94,12.6-4.55,19.09-.89,11.74.49,23.93,2.61,35.49-.18,4.32.56,8.77,2.19,12.81,4.97,12.98,18.89,18.17,31.89,18.41,0,0-.19.45-.19.45l-2.73-2.64h0ZM637.06,240.04c.16.14,3.33,3.04,3.47,3.16-13.51-.12-27.96-5.2-33.23-18.72-1.65-3.96-2.52-9.01-2.28-12.93-1.89-10.3-3.36-21.23-2.95-31.71.17-5.17.78-10.84,2.11-15.83,1.46-5.43,3.52-11.08,7.76-14.99,3.6,20.1,4.01,40.91,0,60.98.51,15.02,8.19,29.33,25.12,30.02h0Z"/>
    </g>
    <g>
      <path class="cls-3" d="M780.12,274.18c14.53-1.94,25.69-11.75,25.41-26.91-1.7-18.27-3.11-36.6-2.79-54.96.34-6.12.14-12.54,2.72-18.25,0,0,.39-.75.39-.75,3.78,5.67,6.48,11.92,8.58,18.33,6.04,18.5,5.6,38.81-.42,57.25-1.8,8.5-6.45,17.04-13.34,22.73-7.11,5.95-16.59,8.15-25.71,7.73,0,0,.44-.44.44-.44l4.73-4.74h0ZM780.36,274.7l-4.6,4.59s-.17-.44-.17-.44c8.79.34,17.87-1.96,24.68-7.69,6.77-5.66,11.24-13.9,13.05-22.47,3.88-12.22,5.47-25.2,4.16-37.97-1.32-12.66-5.15-25.35-12-36.11,0,0,.85-.04.84-.04-1.34,2.62-1.7,5.75-2.07,8.67-1.75,21.3.26,42.75,2,64,.19,15.6-11.15,25.52-25.89,27.46h0Z"/>
      <path class="cls-1" d="M689.31,281.43s37.3-62.17,102.59-23.32c0,0-35.75,68.39-102.59,23.32Z"/>
      <path class="cls-2" d="M706.41,275.22s26.42-18.65,65.28-17.1"/>
    </g>
    <g>
      <g>
        <path class="cls-3" d="M711.99,293.34c-2.72,11.95-12.02,20.43-24.42,21.01-3.88.23-7.75-.15-11.53-1.18h.33s-6.1,2.5-6.1,2.5l.02-.91c12.4,5.95,26.31,5.07,37.24-3.53,5.49-4.1,9.43-9.71,13.41-15.19,0,0,.15.45.15.45-2.45-.8-6.31-2.19-8.74-2.94,0,0-.29-.09-.29-.09-.18-.06-.08,0-.07-.11h0ZM711.71,292.84c.27-.06.57.1.81.17.4.12,1.35.46,1.75.59,1.51.5,5.44,1.81,6.99,2.32,0,0,.38.12.38.12-4.03,5.68-8,11.48-13.65,15.78-11.08,8.89-25.44,9.84-38.11,3.83,0,0-1.04-.47-1.04-.47l1.06-.44,6.1-2.5.16-.06.18.05c3.59,1,7.43,1.4,11.18,1.19,11.84-.52,20.05-8.05,23.59-19.07.16-.46.35-1.07.6-1.51h0Z"/>
        <path class="cls-3" d="M739.14,245.9c-.06-5.21-.13-10.52-1.16-15.62,0,0,.71.26.71.26-3.11,2.23-5.18,5.22-6.64,8.72-1.56,3.41-2.91,6.94-4.28,10.46l-.56-.51c1.76-.68,4.2-1.34,6.01-1.88,1.85-.48,4.07-1.19,5.92-1.42h0ZM739.57,246.28c-2.18.46-4.07,1.01-6.15,1.66-2.06.66-4.78,1.5-6.72,2.36,1.42-3.84,2.81-7.69,4.46-11.47,1.57-3.83,4.11-7.15,7.57-9.44,1.05,5.56,1.3,11.25.84,16.88h0Z"/>
      </g>
      <path class="cls-1" d="M589.58,284.13s58.37-43.01,103.65,18c0,0-59.34,49.34-103.65-18Z"/>
      <path class="cls-2" d="M607.75,284.98s31.57-7.03,66.83,9.37"/>
    </g>
  </g>
  <g>
    <line class="cls-1" x1="452.33" y1="257.53" x2="517.16" y2="257.53"/>
    <polygon class="cls-3" points="515.7 262.52 524.33 257.53 515.7 252.55 515.7 262.52"/>
  </g>
</svg>