<?xml version="1.0" encoding="UTF-8"?>
<svg id="Layer_1" data-name="Layer 1" xmlns="http://www.w3.org/2000/svg" viewBox="0 0 274.48 371.95">
  <defs>
    <style>
      .cls-1 {
        stroke-width: 2px;
      }

      .cls-1, .cls-2, .cls-3 {
        fill: none;
        stroke: #000;
        stroke-miterlimit: 10;
      }

      .cls-3 {
        stroke-width: .5px;
      }
    </style>
  </defs>
  <path class="cls-1" d="M136.58,371.47c4.86-9.02,10.99-23.09,13-41,2.1-18.77-1.9-33.77-10-63-7.08-25.56-12.4-44.21-26-66-7.65-12.26-14.88-23.57-29-33-8.82-5.89-29.33-19.59-48-11-10.15,4.67-20.51,16.28-20,31,.43,12.49,8.56,23.43,19,28,7.79,3.41,20.26,4.76,27-2,.96-.96,5.26-5.56,4-11-1.08-4.65-5.85-8.32-12-9"/>
  <path class="cls-1" d="M178.72,371.47s-29.85-221.19,0-267.59"/>
  <path class="cls-1" d="M198.58,264.47c-3.1-11.68-6.73-31.34-3-55,3.11-19.76,5.97-37.86,21-46,14.52-7.86,35.66-3.84,47,9,6.3,7.13,14.3,22.34,7,32-6.07,8.03-21.28,10.35-29,3-4.12-3.92-4.85-9.4-5-12"/>
  <path class="cls-1" d="M131.58,166.47c1.34-4.3,13.12-43.93-9-69-2.86-3.24-11.32-12.56-25-15-9.04-1.61-27.24-1.45-32,10-3.1,7.46-.37,19.4,9,24,6.98,3.42,15.83,1.89,22-4"/>
  <g>
    <path class="cls-2" d="M154.81,56.82s58.37-43.01,103.65,18c0,0-59.34,49.34-103.65-18Z"/>
    <path class="cls-3" d="M172.98,57.67s31.57-7.03,66.83,9.37"/>
  </g>
  <g>
    <path class="cls-2" d="M.73,37.66S59.01,1.29,93.6,57.55c0,0-43.13,45.38-92.87-19.9Z"/>
    <path class="cls-3" d="M17.83,36.65s38.08-1.32,61.4,15.77"/>
  </g>
  <g>
    <path class="cls-2" d="M84.81,36.59s37.3-62.17,102.59-23.32c0,0-35.75,68.39-102.59,23.32Z"/>
    <path class="cls-3" d="M101.91,30.37s26.42-18.65,65.28-17.1"/>
  </g>
</svg>