<?xml version="1.0" encoding="UTF-8"?>
<svg id="Layer_1" data-name="Layer 1" xmlns="http://www.w3.org/2000/svg" viewBox="0 0 426.73 445.37">
  <defs>
    <style>
      .cls-1 {
        stroke-width: 1.5px;
      }

      .cls-1, .cls-2, .cls-3 {
        fill: none;
        stroke: #000;
        stroke-miterlimit: 10;
      }

      .cls-2 {
        stroke-linecap: round;
      }
    </style>
  </defs>
  <g>
    <path class="cls-1" d="M63.75,246.11l-8-4-8.78,6h-8.41v-3l-5.61-3-2.45,3v-6.95l-2.74-5.05v-4.06l-6-3.94v-6.58l-3-3.42v-4.64l-3-5.36,2-4h5.38l-7.38-5.02,2-3.98,2-5,4-2-4-5h4.43l-.43-5h4.64l2.36-7,4,2,3.1-2,1.9,3.8,2-4.8,3-4h2v-3h2.18l.82-2,3-3,3,1,3.89-1,6.11-3,1,4,3,3-3,2,6,2,2,5h-3l7,2v-2.79l-3-3.21,1-2-2-4,3-1,1,3.67,2-3.67h4l4-2,3,2,4-6,4,1,2-4,4-1v-4.31h-5.06l5.06-9.63h3.66l-1.66-3.06,4-2,4,3,5-2-1-3,3,1,6-3,11,3,7-1,8,5v-7l3-1v-3.65l3-1.35-2-3,8-1,3-8,3,3v-4.18l6-4.82-5-2v-4h5l-3-4,6-4,7,1,6,4-3,2,8,1v-2.62l6-3.38,4,2,5-1,2,6,1,5,4,1v3.46l3-.46v-3.54l7,1.54,2,6,4-2v7.9l5-4.9h-4l4-5.09,2,2.09h2l2-4h5l1,4,3-4,4,2v5.36l6,4.64-4,2,3,7-4,2,7,5,4-2,4,6h4v8.51l10-1.51,10,6v8.34l5,8.66,7-1v-7.66l5,6.66,7-5,2,8h5v6.78l-3,5.22,6,10v8.04l6-.04,3,4-2,3h6l8-3,10,10v6.49l4-2.49,5,5h7l4-5,8,4v6.11l3,3.89,4-5,7,4v9.14l-3,4.86,12-1,8,6-4,7-5-2v-5l-8,2,2,7-3,5h9.94l-1.94,7,4,4-2,10,3,4,1,8h-6.46l2.46,4h5.56l2.44,7.72-2.44,7.28.44,9-7.26,10-4.74,2-6,3,3,4-9,4-4-6-2.52,6-7.48,3,5,15-10,5-4,5h-5.17l-.83,3-5-2,1,5h-22.04l.04-4-4.85,4-5.15,3-4-3,2-6-4-2v-5l-3-4-2-6-4-3-4,2,3,6-4,3,5,3-2,4,5,1-.5,10,5.5,5,5,8h8.75l4.25,9,4,7-9,3-5,8h-7.08l-5.92-2v-4l-7-3-3,7-4.13,2,2.13,8-11-4-4.37,4-7.03-7.19-5.6-5.81v-5l-6-1,1-5-4-2-2-8-2-1v-7l-8-9,3-1-5-1.7v-8.54l5,.25-1-5-5-5-1,2-7-2-4,1,2,7-8-1-2,4-6-4-1,9-4,3-1,6,7-3,3,6-2,5,6-2,2,1,6-2,2,6-2,4,3,1v3s4-1,3,0-3,10-3,10l-7-1-1-3-5-2s3-4-1-5-13,1-13,1l-6,2,6,4,4-2,6,7-4,5,8-2,12,1,1,9,6,1-2.41,3,9.41-3v6l-7,3-4,6-6-1-4.45,1-1.55-2-4.86,2,.86-5-6-3s4-3,3-3-12-2-12-2v-9l-2-3.32-5,2.32-3-7h-4l1,4h2v6l-3,6-6,4v-3l-2,1-1,3-5-2-4,3-6-1-1-3-2,4,2,4-6-1s1.38,4,.69,5-5.69,4-5.69,4l-1-10-5,6-10-6-7-6-6,2-2-8-7,1-4,8-1.01,13h-11.57l-14.43-8-7-11-11-5,1-10-13-6-1-12-6,5-6-8-11-4-8-7,4-5h-8l-4-5,4-5,6,3-1-8-6-2-4,4-5,3-7-4,2-8,7-4v-7l3-3-5-4h-4l-3.39-3,3.39-5-6-1-9-3v-6.12l-3-5.88-5-4v-5.01l5,1.01,1-5s6-4,6-3,4,6,4,6l-2,5,3,1,3-10h6v-8s4-1,4,0,3,5,3,5l-1-9h7l6,2,4-5-2-7,5-5,3-5-3-6,1-7,3-1,7-3Z"/>
    <polyline class="cls-3" points="187.75 324.11 180.75 314.11 184.25 312.34 191.06 311.11 195.75 306.11 199.75 303.11 197.75 298.11 201.75 292.11 208.75 294.11 213.25 302.09 216.53 308.11 222.75 313.11 222.75 304.56 230.75 305.11 225.75 300.11 226.78 292.11 232.75 294.11 227.75 285.11 219.75 280.11 215.75 274.11 209.75 277.11"/>
    <polyline class="cls-3" points="388.75 291.11 394.75 290.11 394.75 299.11 388.75 299.11 388.75 304.92 391.75 307.02 394.75 304.32 399.75 304.11 404.71 307.02 399.92 299.11 406.75 295.11 404.75 287.11 399.75 281.11 411.6 281.11"/>
    <polyline class="cls-3" points="255.75 238.11 262.24 238.11 266.28 238.11 270.75 242.11 270.75 232.19 265.75 225.11 259.75 229.05 250.75 228.11 240.24 225.11 237.75 220.11 243.75 215.11 232.75 215.11 227.75 219.11"/>
    <polyline class="cls-3" points="157.75 261.11 160.75 255.11 159.25 251.77 162.75 250.11 160.25 248.45 160.25 246.08 165.75 244.11 167.58 242.11 165.75 239.11 156.67 242.11 155.25 239.11 151.46 239.11 149.33 242.11 147.75 244.11 143.75 245.11 140.75 244.11 141.75 248.11 145.75 248.11 147.75 251.11 153.12 250.11 155.75 252.11 154.16 255.56"/>
    <polyline class="cls-3" points="215.75 156.11 213.25 154.35 211.75 150.11 215.75 150.11 217.75 149.11 222.56 152.61 224.02 152.61 221.75 157.11 224.02 160.54 221.75 166.11 216.75 163.11 213.75 164.11 212.75 170.11 217.89 173.57 224.02 177.97 224.02 180.9 228.75 184.11 230.75 181.11 230.75 178.95 233.75 178.11 242.75 179.11 239.75 183.11 242.75 184.11 243.75 186.11 249.93 186.11 250.75 184.11 252.75 183.11 255.75 183.11 254.75 179.11 255.75 176.99 251.75 175.11 249.25 178.46"/>
    <path class="cls-3" d="M133.75,376.11l-6-1-2-3-2-2,1-5,2,1,1-3h1l1-2-1-3.84-5,1.43-3,.41s0-3.32,0-3.16,2.57,0,2.57,0l.43-4.84s6-4,5-4-1-3-2-4,.5-3.67.5-3.67l4.5,1.67,2,2.96,10,3.04h2v2.79c0,1.21,2,2.21,2,2.21l1-3,2-2"/>
    <polyline class="cls-3" points="48.75 318.11 54.75 320.11 62.17 318.11 64.44 324.11 71.23 324.11 71.23 330.11 66.7 330.11 63.75 335.11 73.49 339.45 76.21 328.78 81.19 318.11"/>
  </g>
  <g>
    <path class="cls-3" d="M141.08,33.9c1.09,2.1,2.34,4.32,3.52,7.88.68,2.07,2.56,8.14,2.92,16.72.34,8.13.53,12.7-2.12,17.94-.93,1.83-3.38,6.51-8.76,9.24-1.24.63-4.19,2.08-8.23,1.92-4.98-.2-8.34-2.74-9.37-3.54-4.66-3.63-5.95-8.57-6.31-10.38-.34-1.68-1.24-6.2,1.09-10.27.78-1.35,2.64-2.84,6.35-5.77,5.02-3.97,5.35-3.77,7.69-5.95,2.93-2.74,4.86-5.33,6.17-7.12,2.2-3,3.46-5.32,3.74-5.84,1-1.85,2.89-3.94,3.41-5.24"/>
    <path class="cls-2" d="M142.98,70.73c-.07.63-.19,1.34-.4,2.11-.54,1.99-1.99,4.15-3.82,6.26-1.94,2.24-4.12,3.64-5.6,4.17-1.35.48-4.65.82-6.14.14"/>
    <path class="cls-2" d="M124.15,82.42c-.25.03-.95.08-1.69-.32-.65-.35-.97-.86-1.1-1.08"/>
  </g>
  <g>
    <path class="cls-3" d="M282.9,58.78c-1.02,1.78-2.17,3.66-3.31,6.69-.66,1.76-2.49,6.95-3.08,14.35-.56,7.01-.87,10.96,1.25,15.56.74,1.61,2.72,5.73,7.29,8.26,1.06.58,3.57,1.93,7.07,1.92,4.33-.02,7.32-2.1,8.24-2.76,4.16-2.99,5.44-7.22,5.81-8.77.35-1.44,1.28-5.32-.61-8.91-.63-1.19-2.2-2.54-5.31-5.19-4.22-3.59-4.51-3.42-6.47-5.39-2.45-2.46-4.04-4.76-5.11-6.35-1.81-2.66-2.82-4.7-3.05-5.16-.8-1.63-2.38-3.5-2.78-4.64"/>
    <path class="cls-2" d="M280.04,90.54c.04.55.12,1.17.28,1.83.41,1.74,1.59,3.65,3.1,5.53,1.61,1.99,3.45,3.28,4.72,3.78,1.15.46,4.01.85,5.32.31"/>
    <path class="cls-2" d="M295.98,101.23c.22.03.82.1,1.47-.23.57-.28.87-.71.99-.9"/>
  </g>
  <g>
    <path class="cls-3" d="M171.67.49c1.66.27,3.44.5,5.96,1.35,1.46.49,5.7,2,10.72,5.43,4.75,3.25,7.43,5.08,9.27,8.8.65,1.3,2.26,4.68,1.53,8.88-.17.97-.6,3.26-2.4,5.48-2.23,2.74-5.09,3.57-5.98,3.81-4.03,1.11-7.38-.26-8.56-.82-1.1-.52-4.04-1.92-5.36-4.97-.44-1.01-.49-2.7-.59-6.04-.12-4.53.13-4.63-.12-6.88-.31-2.82-.97-5.01-1.42-6.51-.77-2.52-1.55-4.22-1.73-4.59-.63-1.35-1.01-3.31-1.53-4.15"/>
    <path class="cls-2" d="M193.36,15.02c.33.31.68.68,1.02,1.12.9,1.15,1.51,2.89,1.93,4.82.45,2.05.32,3.88,0,4.94-.3.97-1.51,2.98-2.53,3.54"/>
    <path class="cls-2" d="M192.01,30.65c-.09.15-.36.57-.9.82-.47.22-.9.19-1.08.17"/>
  </g>
  <g>
    <path class="cls-3" d="M248.05,12.06c.8,2.56,1.76,5.27,2.37,9.46.35,2.43,1.25,9.57-.03,19.19-1.22,9.12-1.9,14.25-5.88,19.56-1.39,1.86-5.04,6.59-11.56,8.58-1.51.46-5.08,1.5-9.54.53-5.51-1.2-8.75-4.68-9.74-5.78-4.48-4.95-4.95-10.71-5-12.79-.05-1.94-.17-7.15,3.23-11.23,1.13-1.35,3.5-2.65,8.2-5.19,6.36-3.44,6.69-3.15,9.73-5.12,3.8-2.47,6.45-4.99,8.26-6.72,3.03-2.9,4.89-5.24,5.3-5.77,1.47-1.87,3.99-3.82,4.82-5.17"/>
    <path class="cls-2" d="M242.96,53.45c-.2.69-.48,1.46-.86,2.27-1,2.11-3.03,4.23-5.48,6.22-2.6,2.11-5.3,3.25-7.05,3.54-1.59.27-5.34,0-6.86-1.05"/>
    <path class="cls-2" d="M219.7,62.77c-.28-.02-1.07-.1-1.81-.69-.65-.52-.92-1.15-1.02-1.42"/>
  </g>
  <g>
    <path class="cls-3" d="M341.72,23.39c.62,1.97,1.36,4.07,1.83,7.3.27,1.88.97,7.39-.02,14.81-.94,7.04-1.47,11-4.54,15.1-1.08,1.44-3.89,5.09-8.93,6.62-1.16.35-3.92,1.16-7.36.41-4.25-.93-6.75-3.62-7.52-4.46-3.46-3.82-3.82-8.27-3.86-9.88-.04-1.5-.13-5.52,2.49-8.67.87-1.04,2.7-2.05,6.33-4,4.91-2.65,5.17-2.43,7.51-3.95,2.93-1.91,4.98-3.85,6.38-5.19,2.34-2.24,3.78-4.05,4.1-4.45,1.14-1.44,3.08-2.95,3.72-3.99"/>
    <path class="cls-2" d="M337.79,55.34c-.16.53-.37,1.13-.67,1.75-.77,1.63-2.34,3.26-4.23,4.8-2,1.63-4.09,2.51-5.45,2.74-1.23.21-4.12,0-5.3-.81"/>
    <path class="cls-2" d="M319.83,62.53c-.22-.01-.83-.08-1.4-.53-.5-.4-.71-.89-.78-1.1"/>
  </g>
</svg>